<?xml version="1.0" encoding="UTF-8"?>
<svg id="Capa_1" data-name="Capa 1" xmlns="http://www.w3.org/2000/svg" xmlns:xlink="http://www.w3.org/1999/xlink" viewBox="0 0 772.72 199.54">
  <defs>
    <style>
      .cls-1 {
        fill: url(#linear-gradient);
      }

      .cls-1, .cls-2 {
        stroke-width: 0px;
      }
    </style>
    <linearGradient id="linear-gradient" x1="98.45" y1="99.75" x2="208.65" y2="99.75" gradientUnits="userSpaceOnUse">
      <stop offset=".05" stop-color="#d89323"/>
      <stop offset=".3" stop-color="#da005c"/>
      <stop offset=".66" stop-color="#7111b5"/>
      <stop offset="1" stop-color="#79d5e3"/>
    </linearGradient>
  </defs>
  <path class="cls-1" d="M133.5,128.89c-8.27,0-15-6.73-15-15v-28.29c0-2.79-2.27-5.06-5.06-5.06s-5.05,2.27-5.05,5.06v18.46c0,2.74-2.23,4.97-4.97,4.97s-4.97-2.23-4.97-4.97v-18.46c0-8.27,6.73-15,15-15s15,6.73,15,15v28.29c0,2.78,2.27,5.05,5.05,5.05s5.06-2.27,5.06-5.05v-14.15c0-2.75,2.22-4.97,4.97-4.97s4.97,2.23,4.97,4.97v14.15c0,8.27-6.73,15-15,15ZM208.65,123.92v-38.32c0-8.27-6.73-15-15-15s-15,6.73-15,15v28.29c0,2.78-2.27,5.05-5.06,5.05s-5.05-2.27-5.05-5.05v-28.29c0-8.27-6.73-15-15-15s-15,6.73-15,15c0,2.74,2.22,4.97,4.97,4.97s4.97-2.23,4.97-4.97,2.26-5.06,5.05-5.06,5.06,2.27,5.06,5.06v28.29c0,8.27,6.73,15,15,15s15-6.73,15-15v-28.29c0-2.79,2.27-5.06,5.06-5.06s5.05,2.27,5.05,5.06v38.32c0,2.74,2.23,4.97,4.97,4.97s4.97-2.23,4.97-4.97Z"/>
  <g>
    <path class="cls-2" d="M260.67,70.85h.39l39.33,48.04.31-.08v-47.97h3.7v57.68h-.69l-39.02-47.58-.31.08v47.5h-3.7v-57.68Z"/>
    <path class="cls-2" d="M337.09,88.04c12.57,0,17.43,8.41,17.43,20.51l-.31,1.16h-31.77c0,9.56,7.02,15.58,15.81,15.58,5.86,0,9.64-1.31,13.5-3.39l1.93,3.16c-4.4,2.39-8.71,3.93-15.42,3.93-11.57,0-19.59-7.56-19.59-20.44s8.41-20.51,18.43-20.51ZM350.66,106.01c0-8.17-4.78-14.19-13.57-14.19s-14.58,7.09-14.58,14.19h28.15Z"/>
    <path class="cls-2" d="M365.88,78.87h3.7v9.64h13.73v3.55h-13.73v23.6c0,7.87,5.01,9.64,8.48,9.64,2.08,0,5.63-.54,9.33-2.85l1.54,3.16c-4.32,2.7-8.41,3.39-10.87,3.39-5.01,0-12.18-2.47-12.18-13.34v-36.79Z"/>
    <path class="cls-2" d="M399.73,70.85h.39l25.37,32.24,25.45-32.24h.39v57.68h-3.7v-46.96l-.31-.08-21.52,27.22h-.62l-21.44-27.22-.31.08v46.96h-3.7v-57.68Z"/>
    <path class="cls-2" d="M481.09,104.24c3.55,0,8.71.77,13.42,2.54,0-10.57-5.17-15.04-12.88-15.04-4.94,0-9.02,1.7-12.96,3.55l-1.7-3.24c4.4-2.08,8.95-4.01,14.65-4.01,9.95,0,16.58,6.4,16.58,17.2v23.29h-3.7v-6.94l-.31-.08c-4.16,6.25-11.1,7.48-14.96,7.48-9.1,0-14.81-5.24-14.81-12.72,0-3.93,1.93-12.03,16.66-12.03ZM479.24,125.68c5.24,0,15.27-3.01,15.27-15.58-4.55-1.77-9.33-2.47-13.42-2.47-11.49,0-12.72,5.94-12.72,8.64,0,5.4,4.47,9.41,10.87,9.41Z"/>
    <path class="cls-2" d="M513.24,67.22h3.7v38.79h7.4l14.65-17.97,4.63.46-15.96,18.89,18.28,21.13-4.63.46-16.81-20.05h-7.56v19.59h-3.7v-61.31Z"/>
    <path class="cls-2" d="M569.38,88.04c12.57,0,17.43,8.41,17.43,20.51l-.31,1.16h-31.77c0,9.56,7.02,15.58,15.81,15.58,5.86,0,9.64-1.31,13.5-3.39l1.93,3.16c-4.4,2.39-8.71,3.93-15.42,3.93-11.57,0-19.59-7.56-19.59-20.44s8.41-20.51,18.43-20.51ZM582.95,106.01c0-8.17-4.78-14.19-13.57-14.19s-14.58,7.09-14.58,14.19h28.15Z"/>
    <path class="cls-2" d="M598.76,88.51h3.7v5.86l.31.08c5.09-5.4,10.95-6.4,14.11-6.4,1.46,0,3.01.15,4.63.62l-1.16,3.55c-1.16-.31-2.39-.46-3.47-.46-3.08,0-9.64,1.08-14.42,8.02v28.76h-3.7v-40.02Z"/>
    <path class="cls-2" d="M628.99,121.82c3.39,2.08,6.71,3.47,11.95,3.47,5.55,0,10.64-2.62,10.64-7.63,0-11.03-24.68-4.7-24.68-19.74,0-5.63,5.24-9.87,12.49-9.87,6.32,0,9.95,1.85,13.88,3.93l-1.7,3.24c-3.47-1.85-6.71-3.47-12.18-3.47-5.09,0-8.79,2.54-8.79,6.17,0,10.87,24.68,5.09,24.68,19.74,0,7.56-6.86,11.34-14.34,11.34-6.09,0-9.95-1.62-13.88-4.01l1.93-3.16Z"/>
  </g>
</svg>